<svg width="218" height="219" viewBox="0 0 218 219" fill="none" xmlns="http://www.w3.org/2000/svg">
<g clip-path="url(#clip0_6_23)">
<path d="M109 150.562C98.1593 150.562 87.7626 146.236 80.097 138.536C72.4315 130.835 68.125 120.39 68.125 109.5C68.125 98.6095 72.4315 88.1651 80.097 80.4644C87.7626 72.7637 98.1593 68.4375 109 68.4375C119.841 68.4375 130.237 72.7637 137.903 80.4644C145.569 88.1651 149.875 98.6095 149.875 109.5C149.875 120.39 145.569 130.835 137.903 138.536C130.237 146.236 119.841 150.562 109 150.562ZM109 164.25C123.454 164.25 137.317 158.482 147.537 148.214C157.758 137.946 163.5 124.021 163.5 109.5C163.5 94.9794 157.758 81.0535 147.537 70.7859C137.317 60.5183 123.454 54.75 109 54.75C94.5457 54.75 80.6834 60.5183 70.4627 70.7859C60.2419 81.0535 54.5 94.9794 54.5 109.5C54.5 124.021 60.2419 137.946 70.4627 148.214C80.6834 158.482 94.5457 164.25 109 164.25V164.25ZM109 0C110.807 0 112.54 0.721036 113.817 2.00449C115.095 3.28794 115.812 5.02867 115.812 6.84375V34.2188C115.812 36.0338 115.095 37.7746 113.817 39.058C112.54 40.3415 110.807 41.0625 109 41.0625C107.193 41.0625 105.46 40.3415 104.183 39.058C102.905 37.7746 102.188 36.0338 102.188 34.2188V6.84375C102.188 5.02867 102.905 3.28794 104.183 2.00449C105.46 0.721036 107.193 0 109 0V0ZM109 177.938C110.807 177.938 112.54 178.659 113.817 179.942C115.095 181.225 115.812 182.966 115.812 184.781V212.156C115.812 213.971 115.095 215.712 113.817 216.996C112.54 218.279 110.807 219 109 219C107.193 219 105.46 218.279 104.183 216.996C102.905 215.712 102.188 213.971 102.188 212.156V184.781C102.188 182.966 102.905 181.225 104.183 179.942C105.46 178.659 107.193 177.938 109 177.938V177.938ZM218 109.5C218 111.315 217.282 113.056 216.005 114.339C214.727 115.623 212.994 116.344 211.188 116.344H183.938C182.131 116.344 180.398 115.623 179.12 114.339C177.843 113.056 177.125 111.315 177.125 109.5C177.125 107.685 177.843 105.944 179.12 104.661C180.398 103.377 182.131 102.656 183.938 102.656H211.188C212.994 102.656 214.727 103.377 216.005 104.661C217.282 105.944 218 107.685 218 109.5ZM40.875 109.5C40.875 111.315 40.1573 113.056 38.8797 114.339C37.6021 115.623 35.8693 116.344 34.0625 116.344H6.8125C5.00571 116.344 3.27293 115.623 1.99534 114.339C0.717744 113.056 0 111.315 0 109.5C0 107.685 0.717744 105.944 1.99534 104.661C3.27293 103.377 5.00571 102.656 6.8125 102.656H34.0625C35.8693 102.656 37.6021 103.377 38.8797 104.661C40.1573 105.944 40.875 107.685 40.875 109.5ZM186.077 32.0698C187.354 33.3532 188.071 35.0936 188.071 36.9083C188.071 38.7231 187.354 40.4635 186.077 41.7469L166.811 61.1147C166.177 61.7501 165.426 62.2539 164.598 62.5975C163.771 62.941 162.885 63.1175 161.99 63.1169C160.182 63.1156 158.449 62.3929 157.171 61.1078C156.539 60.4715 156.037 59.7163 155.695 58.8853C155.353 58.0543 155.178 57.1637 155.178 56.2645C155.179 54.4484 155.899 52.7072 157.178 51.4239L176.444 32.0698C177.721 30.7868 179.454 30.0661 181.26 30.0661C183.067 30.0661 184.799 30.7868 186.077 32.0698V32.0698ZM60.822 157.899C62.0991 159.182 62.8166 160.923 62.8166 162.738C62.8166 164.552 62.0991 166.293 60.822 167.576L41.5562 186.93C40.2714 188.177 38.5505 188.867 36.7643 188.851C34.9781 188.835 33.2695 188.116 32.0064 186.847C30.7433 185.578 30.0268 183.861 30.0113 182.067C29.9958 180.273 30.6824 178.544 31.9234 177.253L51.1891 157.899C52.4667 156.616 54.1991 155.895 56.0056 155.895C57.812 155.895 59.5445 156.616 60.822 157.899V157.899ZM186.077 186.93C184.799 188.213 183.067 188.934 181.26 188.934C179.454 188.934 177.721 188.213 176.444 186.93L157.178 167.576C155.937 166.285 155.25 164.557 155.266 162.762C155.281 160.968 155.998 159.251 157.261 157.982C158.524 156.713 160.233 155.994 162.019 155.978C163.805 155.963 165.526 156.652 166.811 157.899L186.077 177.253C187.354 178.537 188.071 180.277 188.071 182.092C188.071 183.906 187.354 185.647 186.077 186.93ZM60.822 61.1147C59.5445 62.3977 57.812 63.1184 56.0056 63.1184C54.1991 63.1184 52.4667 62.3977 51.1891 61.1147L31.9234 41.7469C31.2727 41.1156 30.7537 40.3604 30.3967 39.5254C30.0396 38.6905 29.8517 37.7924 29.8439 36.8837C29.836 35.975 30.0084 35.0738 30.3509 34.2328C30.6934 33.3917 31.1993 32.6276 31.8389 31.985C32.4786 31.3424 33.2392 30.8342 34.0764 30.4901C34.9137 30.146 35.8107 29.9729 36.7153 29.9808C37.6199 29.9887 38.5138 30.1774 39.3449 30.5361C40.1761 30.8948 40.9278 31.4162 41.5562 32.0698L60.822 51.4239C61.4564 52.0597 61.9598 52.8149 62.3032 53.6463C62.6466 54.4778 62.8234 55.3691 62.8234 56.2693C62.8234 57.1695 62.6466 58.0609 62.3032 58.8923C61.9598 59.7237 61.4564 60.479 60.822 61.1147V61.1147Z" fill="black"/>
</g>
<defs>
<clipPath id="clip0_6_23">
<rect width="218" height="219" fill="white"/>
</clipPath>
</defs>
</svg>
