<svg width="276" height="468" viewBox="0 0 276 468" fill="none" xmlns="http://www.w3.org/2000/svg">
<line x1="224.409" y1="231.712" x2="274.917" y2="303.531" stroke="black"/>
<line x1="3.50001" y1="467.005" x2="2.50001" y2="4.00541" stroke="black" stroke-width="5"/>
<line y1="2.5" x2="224" y2="2.5" stroke="black" stroke-width="5"/>
<line x1="4.36011" y1="61.493" x2="71.5374" y2="3.113" stroke="black" stroke-width="5"/>
<line x1="221.5" y1="4" x2="221.5" y2="156" stroke="black"/>
<ellipse cx="221" cy="176.5" rx="29" ry="28.5" fill="#D9D9D9"/>
<line x1="222.5" y1="205" x2="222.5" y2="337" stroke="black" stroke-width="3"/>
<line x1="220.974" y1="234.268" x2="177.422" y2="302.819" stroke="black"/>
<line x1="224.422" y1="334.732" x2="272.4" y2="410.457" stroke="black"/>
<line x1="221.893" y1="335.226" x2="183.446" y2="411.08" stroke="black"/>
<path d="M187.5 176.167C187.5 157.603 202.603 142.5 221.167 142.5C239.73 142.5 254.833 157.603 254.833 176.167C254.833 194.73 239.73 209.833 221.167 209.833C202.603 209.833 187.5 194.73 187.5 176.167ZM193.333 176.167C193.333 191.514 205.82 204 221.167 204C236.514 204 249 191.514 249 176.167C249 160.82 236.514 148.333 221.167 148.333C205.82 148.333 193.333 160.82 193.333 176.167Z" fill="black" stroke="black"/>
<path d="M224.333 176.25L231.167 176.291C231.208 174.713 231.829 172.833 234.583 172.833C237.337 172.833 237.959 174.713 238 176.25H244.833C244.833 172.13 242.103 166 234.583 166C227.063 166 224.333 172.13 224.333 176.25ZM207.25 172.833C210.004 172.833 210.626 174.713 210.667 176.25H217.5C217.5 172.13 214.77 166 207.25 166C199.73 166 197 172.13 197 176.25L203.833 176.291C203.874 174.713 204.496 172.833 207.25 172.833Z" fill="black"/>
<path d="M221.083 199.667C234.75 199.667 238.167 186 238.167 186H204C204 186 207.417 199.667 221.083 199.667Z" fill="black"/>
</svg>
