<svg width="276" height="468" viewBox="0 0 276 468" fill="none" xmlns="http://www.w3.org/2000/svg">
<line x1="224.409" y1="231.712" x2="274.917" y2="303.531" stroke="black"/>
<line x1="3.50001" y1="467.005" x2="2.50001" y2="4.00541" stroke="black" stroke-width="5"/>
<line y1="2.5" x2="224" y2="2.5" stroke="black" stroke-width="5"/>
<line x1="4.36011" y1="61.493" x2="71.5374" y2="3.113" stroke="black" stroke-width="5"/>
<line x1="221.5" y1="4" x2="221.5" y2="156" stroke="black"/>
<ellipse cx="221" cy="176.5" rx="29" ry="28.5" fill="#D9D9D9"/>
<line x1="222.5" y1="205" x2="222.5" y2="337" stroke="black" stroke-width="3"/>
<line x1="220.974" y1="234.268" x2="177.422" y2="302.819" stroke="black"/>
<line x1="224.422" y1="334.732" x2="272.4" y2="410.457" stroke="black"/>
<line x1="221.893" y1="335.226" x2="183.446" y2="411.08" stroke="black"/>
<path d="M249 176.5C249 169.18 246.05 162.16 240.799 156.984C235.548 151.808 228.426 148.9 221 148.9C213.574 148.9 206.452 151.808 201.201 156.984C195.95 162.16 193 169.18 193 176.5C193 183.82 195.95 190.84 201.201 196.016C206.452 201.192 213.574 204.1 221 204.1C228.426 204.1 235.548 201.192 240.799 196.016C246.05 190.84 249 183.82 249 176.5ZM256 176.5C256 185.65 252.313 194.425 245.749 200.895C239.185 207.365 230.283 211 221 211C216.404 211 211.852 210.108 207.606 208.374C203.36 206.64 199.501 204.099 196.251 200.895C189.687 194.425 186 185.65 186 176.5C186 167.35 189.687 158.575 196.251 152.105C202.815 145.635 211.717 142 221 142C225.596 142 230.148 142.892 234.394 144.626C238.64 146.36 242.499 148.901 245.749 152.105C248.999 155.308 251.577 159.112 253.336 163.297C255.095 167.483 256 171.969 256 176.5M214 167.875C214 170.635 211.55 173.05 208.75 173.05C205.95 173.05 203.5 170.635 203.5 167.875C203.5 165.115 205.95 162.7 208.75 162.7C211.55 162.7 214 165.115 214 167.875ZM238.5 167.875C238.5 170.635 236.05 173.05 233.25 173.05C230.45 173.05 228 170.635 228 167.875C228 165.115 230.45 162.7 233.25 162.7C236.05 162.7 238.5 165.115 238.5 167.875ZM221 194.543C214.875 194.543 209.485 192.025 206.335 188.299L211.305 183.4C212.88 185.884 216.625 187.643 221 187.643C225.375 187.643 229.12 185.884 230.695 183.4L235.665 188.299C232.515 192.025 227.125 194.543 221 194.543V194.543Z" fill="black"/>
<line x1="201.733" y1="165.793" x2="211.601" y2="159.577" stroke="black"/>
<line x1="230.222" y1="159.552" x2="240.673" y2="164.726" stroke="black"/>
</svg>
