<svg width="256" height="468" viewBox="0 0 256 468" fill="none" xmlns="http://www.w3.org/2000/svg">
<line x1="3.50001" y1="467.005" x2="2.50001" y2="4.00541" stroke="black" stroke-width="5"/>
<line y1="2.5" x2="224" y2="2.5" stroke="black" stroke-width="5"/>
<line x1="4.36011" y1="61.493" x2="71.5374" y2="3.113" stroke="black" stroke-width="5"/>
<line x1="221.5" y1="4" x2="221.5" y2="156" stroke="black"/>
<ellipse cx="221" cy="176.5" rx="29" ry="28.5" fill="#D9D9D9"/>
<line x1="222.5" y1="205" x2="222.5" y2="337" stroke="black" stroke-width="3"/>
<line x1="221.454" y1="229.129" x2="200.483" y2="307.591" stroke="black"/>
<line x1="223.472" y1="333.836" x2="252.865" y2="418.524" stroke="black"/>
<line x1="221.053" y1="337.186" x2="189.464" y2="416.142" stroke="black"/>
<path d="M222.002 147C205.428 147 192 160.428 192 177C192 193.572 205.428 207 222.002 207C238.574 207 252 193.572 252 177C252 160.428 238.574 147 222.002 147ZM222.002 204.5C206.837 204.5 194.5 192.164 194.5 177C194.5 161.836 206.837 149.5 222.002 149.5C237.165 149.5 249.5 161.836 249.5 177C249.5 192.164 237.165 204.5 222.002 204.5Z" fill="black"/>
<path d="M243.883 171.844C240.533 167.955 229.877 169.324 226.717 174.637C226.488 175.032 227.094 175.599 227.832 176.047C229.971 174.549 232.473 173.711 235.021 173.531C235.031 176.339 237.25 178.615 239.99 178.615C243.955 178.615 245.85 174.124 243.883 171.844M216.549 171.844C213.201 167.956 202.545 169.323 199.383 174.639C199.154 175.032 199.76 175.596 200.499 176.047C202.637 174.549 205.139 173.711 207.687 173.531C207.697 176.339 209.916 178.615 212.656 178.615C216.624 178.615 218.516 174.124 216.549 171.844ZM230.273 187.827C224.507 186.278 218.224 187.399 213.343 190.84C212.138 191.71 214.396 194.868 215.595 193.993C218.817 191.725 223.947 190.158 229.255 191.561C230.678 191.938 231.791 188.252 230.273 187.827" fill="black"/>
<line x1="222.008" y1="228.227" x2="245.334" y2="227.774" stroke="black"/>
<line x1="245.896" y1="229.173" x2="226.441" y2="266.981" stroke="black"/>
</svg>
