<svg width="296" height="468" viewBox="0 0 296 468" fill="none" xmlns="http://www.w3.org/2000/svg">
<line x1="223.63" y1="240.492" x2="276.286" y2="182.663" stroke="black"/>
<line x1="3.50001" y1="467.005" x2="2.50001" y2="4.00541" stroke="black" stroke-width="5"/>
<line y1="2.5" x2="224" y2="2.5" stroke="black" stroke-width="5"/>
<line x1="4.36011" y1="61.493" x2="71.5374" y2="3.113" stroke="black" stroke-width="5"/>
<line x1="221.5" y1="4" x2="221.5" y2="156" stroke="black"/>
<ellipse cx="221" cy="176.5" rx="29" ry="28.5" fill="#D9D9D9"/>
<line x1="222.5" y1="205" x2="222.5" y2="337" stroke="black" stroke-width="3"/>
<line x1="223.596" y1="238.03" x2="142.941" y2="228.497" stroke="black"/>
<line x1="224.306" y1="334.605" x2="295.207" y2="389.459" stroke="black"/>
<line x1="223.572" y1="335.479" x2="142.144" y2="360.003" stroke="black"/>
<path d="M220.906 142C201.659 142 186 157.477 186 176.5C186 195.523 201.659 211 220.906 211C240.153 211 255.812 195.523 255.812 176.5C255.812 157.477 240.153 142 220.906 142ZM220.906 204.1C205.509 204.1 192.981 191.718 192.981 176.5C192.981 161.282 205.509 148.9 220.906 148.9C236.303 148.9 248.831 161.282 248.831 176.5C248.831 191.718 236.303 204.1 220.906 204.1Z" fill="black"/>
<path d="M221.068 183.481C210.596 183.481 207.106 193.831 207.106 193.831H235.031C235.031 193.831 231.54 183.481 221.068 183.481ZM212.555 175.067C212.604 175.018 212.635 174.963 212.684 174.915L216.283 176.34L218.873 169.933L201.42 163.033L198.83 169.436L203.622 171.33L203.615 171.406C203.613 172.431 203.919 173.433 204.494 174.285C205.069 175.138 205.887 175.802 206.845 176.195C207.803 176.587 208.857 176.689 209.873 176.488C210.89 176.287 211.823 175.793 212.555 175.067V175.067ZM223.264 169.926L225.854 176.333L229.474 174.901C229.512 174.939 229.54 174.984 229.575 175.022C230.058 175.502 230.632 175.884 231.264 176.144C231.897 176.405 232.576 176.539 233.261 176.539C233.946 176.539 234.625 176.405 235.257 176.144C235.89 175.884 236.464 175.502 236.947 175.022C237.893 174.087 238.476 172.8 238.476 171.379L238.472 171.344L243.31 169.433L240.72 163.026L223.264 169.926V169.926Z" fill="black"/>
</svg>
