<svg width="260" height="468" viewBox="0 0 260 468" fill="none" xmlns="http://www.w3.org/2000/svg">
<path d="M69.4034 100V63.6364H81.6903C84.5313 63.6364 86.8632 64.1217 88.6861 65.0923C90.509 66.0511 91.8584 67.371 92.7344 69.0518C93.6103 70.7327 94.0483 72.6444 94.0483 74.7869C94.0483 76.9295 93.6103 78.8293 92.7344 80.4865C91.8584 82.1437 90.5149 83.4458 88.7038 84.3928C86.8928 85.3279 84.5786 85.7955 81.7614 85.7955H71.8182V81.8182H81.6193C83.5606 81.8182 85.1231 81.5341 86.3068 80.9659C87.5024 80.3977 88.3665 79.5928 88.8991 78.5511C89.4437 77.4976 89.7159 76.2429 89.7159 74.7869C89.7159 73.331 89.4437 72.0585 88.8991 70.9695C88.3546 69.8804 87.4846 69.04 86.2891 68.4482C85.0935 67.8445 83.5133 67.5426 81.5483 67.5426H73.8068V100H69.4034ZM86.5199 83.6648L95.4688 100H90.3551L81.5483 83.6648H86.5199ZM103.872 100.284C102.996 100.284 102.244 99.9704 101.617 99.343C100.989 98.7157 100.676 97.964 100.676 97.0881C100.676 96.2121 100.989 95.4605 101.617 94.8331C102.244 94.2057 102.996 93.892 103.872 93.892C104.748 93.892 105.499 94.2057 106.127 94.8331C106.754 95.4605 107.068 96.2121 107.068 97.0881C107.068 97.6681 106.92 98.2008 106.624 98.6861C106.34 99.1714 105.955 99.562 105.47 99.858C104.996 100.142 104.463 100.284 103.872 100.284ZM119.559 63.6364V100H115.155V63.6364H119.559ZM130.874 100.284C129.998 100.284 129.246 99.9704 128.619 99.343C127.991 98.7157 127.678 97.964 127.678 97.0881C127.678 96.2121 127.991 95.4605 128.619 94.8331C129.246 94.2057 129.998 93.892 130.874 93.892C131.75 93.892 132.501 94.2057 133.129 94.8331C133.756 95.4605 134.07 96.2121 134.07 97.0881C134.07 97.6681 133.922 98.2008 133.626 98.6861C133.342 99.1714 132.957 99.562 132.472 99.858C131.998 100.142 131.465 100.284 130.874 100.284ZM142.157 100V63.6364H154.444C157.297 63.6364 159.629 64.1513 161.44 65.1811C163.263 66.1991 164.612 67.5781 165.488 69.3182C166.364 71.0582 166.802 72.9995 166.802 75.142C166.802 77.2846 166.364 79.2318 165.488 80.9837C164.624 82.7356 163.287 84.1323 161.475 85.174C159.664 86.2038 157.344 86.7188 154.515 86.7188H145.708V82.8125H154.373C156.326 82.8125 157.895 82.4751 159.078 81.8004C160.262 81.1257 161.12 80.2143 161.653 79.0661C162.198 77.906 162.47 76.598 162.47 75.142C162.47 73.6861 162.198 72.384 161.653 71.2358C161.12 70.0876 160.256 69.188 159.061 68.5369C157.865 67.8741 156.279 67.5426 154.302 67.5426H146.561V100H142.157Z" fill="black"/>
<path d="M149.505 121.033L150.043 120.222L150.667 120.846L152.001 118.924L151.341 118.264L151.999 117.272L150.728 116.003L149.737 116.659L149.079 116L147.152 117.331L147.778 117.957L146.967 118.493L146.743 119.759L146.207 120.114L144.868 118.774L145.43 118.212L143.603 117.372L142.656 118.321L143.494 120.148L144.056 119.586L145.231 120.762L143.387 121.987L141.189 119.79L140.375 120.603L142.882 123.112L131.089 134.063C129.061 132.164 126.015 129.76 122.829 129.76C120.221 129.76 118.035 131.318 116.333 134.386C116.033 134.925 115.831 135.555 115.637 136.164C115.061 137.962 114.563 139.11 112.772 139.269L97.882 124.379L92.986 126.4L94.423 127.838L95.291 128.706L96.443 129.859V129.858L111.179 144.594C110.949 145.036 110.62 145.418 110.217 145.711C108.858 146.729 107.717 147.246 106.824 147.246C106.343 147.246 105.636 147.111 105.067 145.947C104.801 145.406 104.244 144.828 103.479 144.828C101.818 144.828 101.464 147.295 101.348 148.102C101.282 148.554 100.876 149.623 98.541 149.779C95.701 149.97 93.515 151.569 92.54 154.163C91.223 157.674 92.024 163.636 98.227 169.838C102.197 173.809 106.584 175.994 110.58 175.996H110.582C114.814 175.996 117.908 173.407 118.279 169.555C118.515 167.112 119.625 166.766 119.958 166.718C121.257 166.531 123.009 166.132 123.218 164.813C123.331 164.096 122.9 163.383 122.114 162.998C121.406 162.65 120.998 162.221 120.867 161.683C120.643 160.762 121.14 159.476 122.366 157.828C122.653 157.432 123.028 157.107 123.461 156.878L135.891 169.308L138.136 171.553L140.159 173.576L141.596 175.013L143.619 170.117L128.794 155.293C128.965 153.371 130.282 152.947 131.898 152.43C132.508 152.235 133.138 152.034 133.678 151.733C136.394 150.226 137.931 148.329 138.243 146.093C138.738 142.558 136.033 139.133 133.941 136.912L145.138 124.852L145.566 125.28L146.343 124.11L147.656 125.423L147.095 125.985L148.922 126.825L149.869 125.876L149.029 124.049L148.468 124.61L146.991 123.132L147.796 121.92L150.81 124.935L151.623 124.121L148.683 121.179L149.505 121.033M117.51 136.766C117.684 136.224 117.848 135.712 118.052 135.342C119.401 132.911 120.964 131.729 122.829 131.729C125.274 131.729 127.843 133.735 129.643 135.407L118.892 145.392L114.396 140.896C116.424 140.104 117.063 138.162 117.51 136.766M123.438 154.79L120.178 151.53L120.992 150.715L121.061 150.784L121.618 150.184L126.122 154.688C125.735 154.614 125.342 154.575 124.948 154.572C124.437 154.572 123.928 154.645 123.438 154.79M110.03 159.46L118.035 151.454L118.773 152.192L110.768 160.197L110.03 159.46ZM114.822 148.718C114.862 148.603 114.889 148.465 114.903 148.322L115.442 148.861L114.983 149.32C115.003 149.214 114.999 149.105 114.971 149.001C114.943 148.896 114.892 148.8 114.822 148.718M115.815 149.234L116.551 149.97L108.547 157.976L107.811 157.24L115.815 149.234M118.399 148.123L117.585 148.937L116.849 148.201L117.663 147.386L118.399 148.123M120.621 150.344L119.806 151.158L119.069 150.421L119.883 149.606L120.621 150.344ZM118.696 150.049L117.957 149.31L118.771 148.495L119.51 149.234L118.696 150.049ZM116.924 150.343L117.663 151.082L109.658 159.087L108.92 158.35L116.924 150.343ZM119.145 152.563L119.685 153.103C119.55 153.115 119.416 153.142 119.287 153.185C119.205 153.115 119.108 153.064 119.004 153.036C118.899 153.008 118.79 153.004 118.684 153.024L119.145 152.563M117.222 146.944L117.29 147.013L116.476 147.827L113.27 144.621C113.51 143.755 113.554 142.847 113.397 141.962L117.822 146.387L117.222 146.944M98.869 127.436L110.623 139.19L110.093 139.153L110.935 140.725C110.973 140.795 111.462 141.739 111.518 142.871L97.476 128.828L98.869 127.436ZM94.384 154.859C95.085 152.991 96.609 151.884 98.674 151.747C102.545 151.486 103.19 149.112 103.295 148.388C103.369 147.869 103.455 147.502 103.533 147.247C104.497 148.861 105.836 149.217 106.825 149.217C108.823 149.216 110.76 147.766 111.415 147.275C111.923 146.895 112.304 146.471 112.608 146.028L113.652 147.072C111.04 146.893 107.526 153.513 105.996 151.984C105.614 151.599 105.712 151.263 105.817 151.079C105.926 151.096 106.037 151.087 106.142 151.054C106.247 151.02 106.343 150.963 106.422 150.886C106.489 150.819 106.543 150.739 106.579 150.651C106.615 150.564 106.634 150.47 106.634 150.375C106.634 150.28 106.616 150.186 106.58 150.098C106.543 150.01 106.49 149.93 106.423 149.863C106.356 149.796 106.276 149.742 106.188 149.706C106.101 149.67 106.007 149.651 105.912 149.651C105.817 149.651 105.723 149.669 105.635 149.705C105.547 149.742 105.467 149.795 105.4 149.862C105.288 149.978 105.217 150.128 105.201 150.288C105.184 150.448 105.222 150.61 105.308 150.746C105.099 151.052 104.696 151.835 105.421 152.559C107.903 155.042 112.543 146.517 114.123 148.098C114.226 148.2 114.235 148.352 114.22 148.485C114.052 148.495 113.893 148.566 113.772 148.684C113.637 148.82 113.56 149.003 113.56 149.195C113.56 149.387 113.637 149.57 113.772 149.706C113.855 149.787 113.957 149.847 114.068 149.88C114.18 149.912 114.297 149.917 114.411 149.894L107.438 156.869L106.788 156.219C106.788 156.219 105.551 158.284 105.27 159.033C105.016 159.704 104.976 161.202 104.63 161.829C103.776 163.372 100.418 166.365 98.889 167.685C94.018 162.424 93.38 157.532 94.384 154.859M120.764 156.688C120.18 157.474 118.401 159.865 118.956 162.15C119.196 163.141 119.823 163.942 120.821 164.537C120.447 164.645 120.064 164.724 119.678 164.774C118.985 164.875 116.695 165.501 116.321 169.37C116.044 172.247 113.844 174.033 110.582 174.033H110.581C108.669 174.033 104.867 173.368 100.321 169.125C101.64 167.597 104.635 164.233 106.178 163.38C106.806 163.032 108.305 162.992 108.975 162.738C109.725 162.458 111.789 161.22 111.789 161.22L111.139 160.57L118.113 153.595C118.09 153.709 118.095 153.826 118.128 153.937C118.16 154.049 118.22 154.15 118.301 154.233C118.368 154.3 118.448 154.354 118.536 154.391C118.624 154.427 118.718 154.446 118.813 154.446C118.908 154.446 119.002 154.427 119.09 154.391C119.178 154.354 119.258 154.3 119.325 154.233C119.442 154.113 119.512 153.955 119.522 153.788C119.653 153.77 119.805 153.782 119.907 153.882C121.49 155.463 112.966 160.107 115.448 162.591C116.173 163.315 116.956 162.911 117.261 162.702C117.397 162.789 117.558 162.826 117.719 162.809C117.879 162.792 118.029 162.721 118.143 162.607C118.211 162.54 118.264 162.461 118.301 162.373C118.337 162.285 118.356 162.191 118.356 162.097C118.356 162.002 118.337 161.908 118.301 161.82C118.264 161.732 118.211 161.653 118.143 161.586C118.076 161.519 117.996 161.465 117.909 161.429C117.821 161.392 117.727 161.374 117.632 161.374C117.537 161.374 117.443 161.392 117.355 161.429C117.268 161.465 117.188 161.519 117.121 161.586C117.044 161.665 116.987 161.76 116.953 161.865C116.92 161.97 116.911 162.081 116.928 162.19C116.743 162.298 116.407 162.398 116.025 162.013C114.496 160.483 121.116 156.968 120.935 154.354L122.035 155.454C121.546 155.793 121.117 156.21 120.764 156.688M125.2 156.553C125.944 156.609 126.67 156.806 127.341 157.132L128.919 157.99L128.88 157.446L140.564 169.129L139.17 170.522L136.924 168.276H136.923L125.2 156.553M136.296 145.82C136.073 147.411 134.871 148.821 132.723 150.012C132.353 150.218 131.841 150.382 131.298 150.556C129.89 151.007 127.957 151.643 127.17 153.668L122.613 149.111L132.599 138.357C134.428 140.314 136.667 143.174 136.296 145.82Z" fill="black"/>
<line x1="224.477" y1="242.849" x2="243.926" y2="304.32" stroke="black"/>
<line x1="3.50001" y1="467.005" x2="2.50001" y2="4.00541" stroke="black" stroke-width="5"/>
<line y1="2.5" x2="224" y2="2.5" stroke="black" stroke-width="5"/>
<line x1="4.36011" y1="61.493" x2="71.5374" y2="3.113" stroke="black" stroke-width="5"/>
<line x1="221.5" y1="4" x2="221.5" y2="156" stroke="black"/>
<ellipse cx="221" cy="176.5" rx="29" ry="28.5" fill="#D9D9D9"/>
<line x1="222.5" y1="205" x2="222.5" y2="337" stroke="black" stroke-width="3"/>
<line x1="220.994" y1="240.141" x2="201.48" y2="306.567" stroke="black"/>
<line x1="224.461" y1="336.807" x2="259.146" y2="419.468" stroke="black"/>
<line x1="221.954" y1="335.15" x2="196.477" y2="416.285" stroke="black"/>
<path d="M220 146C203.431 146 190 159.431 190 176C190 192.569 203.431 206 220 206C236.569 206 250 192.569 250 176C250 159.431 236.569 146 220 146ZM238.385 194.385C233.826 198.93 227.738 201.615 221.308 201.917C214.878 202.219 208.566 200.116 203.601 196.018C198.637 191.92 195.376 186.12 194.454 179.749C193.532 173.378 195.015 166.892 198.614 161.555C202.213 156.217 207.67 152.411 213.922 150.878C220.174 149.344 226.773 150.193 232.433 153.26C238.094 156.326 242.409 161.39 244.54 167.464C246.671 173.539 246.463 180.189 243.958 186.119C242.653 189.209 240.76 192.016 238.385 194.385Z" fill="black"/>
<path d="M209 184H231V188H209V184ZM214.329 172.505L211.324 169.834L213.995 166.829L211.005 164.171L208.334 167.177L205.329 164.505L202.671 167.495L205.677 170.166L203.005 173.171L205.995 175.829L208.666 172.824L211.671 175.495L214.329 172.505V172.505ZM235.995 166.829L233.005 164.171L230.334 167.177L227.329 164.505L224.671 167.495L227.677 170.166L225.005 173.171L227.995 175.829L230.666 172.824L233.671 175.495L236.329 172.505L233.324 169.834L235.995 166.829Z" fill="black"/>
</svg>
